<?xml version="1.0" standalone="no"?>
<!DOCTYPE svg PUBLIC "-//W3C//DTD SVG 20010904//EN"
 "http://www.w3.org/TR/2001/REC-SVG-20010904/DTD/svg10.dtd">
<svg version="1.0" xmlns="http://www.w3.org/2000/svg"
 width="681.000000pt" height="350.000000pt" viewBox="0 0 681.000000 350.000000"
 preserveAspectRatio="xMidYMid meet">

<g transform="translate(0.000000,350.000000) scale(0.100000,-0.100000)"
fill="#ffffff" stroke="none">
<path d="M2730 1890 c0 -763 0 -770 20 -770 20 0 20 7 20 770 0 763 0 770 -20
770 -20 0 -20 -7 -20 -770z"/>
<path d="M1415 2398 c-3 -7 -4 -240 -3 -518 l3 -505 23 -3 22 -3 0 520 c0 517
0 521 -20 521 -11 0 -23 -6 -25 -12z"/>
<path d="M2075 2398 c-3 -7 -4 -240 -3 -518 3 -497 3 -505 23 -505 20 0 20 7
20 515 0 483 -1 515 -18 518 -9 2 -19 -2 -22 -10z"/>
<path d="M4770 2264 c-80 -21 -130 -59 -162 -123 -30 -59 -33 -86 -17 -144 18
-67 63 -106 196 -168 68 -33 126 -67 132 -78 17 -30 13 -59 -10 -82 -31 -31
-142 -24 -223 14 -56 26 -60 27 -78 10 -20 -18 -48 -75 -48 -98 0 -15 91 -60
153 -76 73 -18 223 -8 274 19 84 44 123 106 123 195 0 109 -59 175 -216 241
-130 54 -156 86 -115 137 16 20 27 23 78 22 33 -1 85 -12 117 -23 31 -12 64
-19 72 -16 18 7 44 66 44 99 0 21 -9 28 -57 45 -32 11 -78 23 -103 26 -25 4
-58 9 -75 11 -16 2 -55 -2 -85 -11z"/>
<path d="M3035 2248 c-3 -7 -9 -76 -15 -153 -6 -77 -15 -192 -20 -255 -5 -63
-12 -161 -16 -216 l-7 -102 49 -6 c27 -4 63 -3 79 2 l30 8 12 175 c6 96 11
211 12 257 1 45 5 82 10 82 5 0 31 -91 58 -202 l49 -203 89 0 89 0 48 190 c26
105 47 193 47 198 1 4 5 7 9 7 5 0 14 -109 21 -242 7 -133 15 -247 18 -254 10
-28 146 -28 156 -1 2 7 -2 77 -9 157 -7 80 -20 237 -29 350 -9 113 -20 209
-24 213 -4 4 -54 6 -112 5 l-104 -3 -27 -105 c-15 -58 -37 -152 -49 -210 -12
-58 -25 -111 -29 -119 -5 -9 -16 24 -30 85 -40 180 -78 332 -85 343 -9 16
-214 15 -220 -1z"/>
<path d="M3892 1973 c3 -312 3 -310 64 -382 42 -50 98 -74 188 -79 152 -9 242
33 293 136 l28 57 3 278 3 277 -84 0 -85 0 -4 -267 c-4 -284 -8 -309 -53 -333
-30 -16 -99 -16 -129 -1 -48 26 -50 41 -56 303 -5 244 -5 247 -29 272 -21 22
-33 26 -83 26 l-59 0 3 -287z"/>
<path d="M5227 2254 c-4 -4 -7 -151 -7 -326 0 -352 3 -375 57 -397 21 -9 84
-11 211 -9 170 3 183 4 203 24 13 14 23 39 26 68 l6 45 -164 3 -164 3 -3 78
-3 77 120 0 c99 0 120 3 125 16 9 22 7 97 -2 111 -5 8 -46 13 -122 15 l-115 3
-3 73 -3 72 145 0 c168 0 169 1 164 93 l-3 52 -231 3 c-127 1 -233 -1 -237 -4z"/>
<path d="M1250 1890 l0 -271 23 3 22 3 0 265 0 265 -22 3 -23 3 0 -271z"/>
<path d="M2240 1890 l0 -271 23 3 22 3 0 265 0 265 -22 3 -23 3 0 -271z"/>
<path d="M1587 2133 c-12 -11 -8 -481 3 -488 6 -4 17 -1 25 5 12 10 15 53 15
239 0 163 -3 230 -12 239 -14 14 -22 15 -31 5z"/>
<path d="M1917 2133 c-12 -11 -8 -481 3 -488 6 -4 17 -1 25 5 12 10 15 53 15
239 0 163 -3 230 -12 239 -14 14 -22 15 -31 5z"/>
<path d="M1086 1985 c-9 -25 -7 -178 3 -194 5 -8 16 -11 25 -8 25 10 19 210
-5 215 -9 2 -19 -4 -23 -13z"/>
<path d="M1746 1985 c-9 -25 -7 -178 3 -194 5 -8 16 -11 25 -8 25 10 19 210
-5 215 -9 2 -19 -4 -23 -13z"/>
<path d="M2405 1987 c-3 -7 -4 -56 -3 -108 3 -86 5 -94 23 -94 19 0 20 7 20
105 0 92 -2 105 -18 108 -9 2 -19 -3 -22 -11z"/>
</g>
</svg>
